<?xml version="1.0" standalone="no"?>
<!DOCTYPE svg PUBLIC "-//W3C//DTD SVG 20010904//EN"
 "http://www.w3.org/TR/2001/REC-SVG-20010904/DTD/svg10.dtd">
<svg version="1.0" xmlns="http://www.w3.org/2000/svg"
 width="512.000000pt" height="512.000000pt" viewBox="0 0 512.000000 512.000000"
 preserveAspectRatio="xMidYMid meet">
<metadata>
Created by potrace 1.11, written by Peter Selinger 2001-2013
</metadata>
<g transform="translate(0.000000,512.000000) scale(0.100000,-0.100000)"
fill="#000000" stroke="none">
<path d="M1810 4814 c-14 -2 -59 -9 -100 -15 -213 -32 -450 -118 -620 -227
-71 -45 -222 -166 -285 -229 -174 -171 -327 -398 -380 -560 -10 -29 -20 -51
-24 -49 -3 2 -7 -6 -8 -17 0 -12 -12 -58 -26 -103 -55 -177 -77 -409 -58 -609
15 -155 58 -344 99 -438 11 -23 25 -58 32 -77 75 -193 301 -493 466 -616 22
-16 44 -34 49 -40 13 -15 124 -88 200 -132 108 -62 280 -129 420 -163 97 -23
310 -49 391 -48 215 4 469 57 651 135 48 21 93 37 100 37 7 0 11 3 8 5 -3 3
42 33 100 67 107 65 166 106 223 159 l32 30 140 -139 140 -140 -57 -57 c-31
-31 -61 -54 -67 -51 -6 3 -8 3 -4 -2 4 -4 1 -17 -7 -29 -8 -11 -15 -36 -15
-56 0 -33 30 -66 550 -585 302 -303 559 -554 569 -559 11 -5 31 -6 44 -2 22 5
398 371 433 420 34 49 39 43 -543 627 -525 526 -560 559 -593 559 -20 0 -45
-7 -56 -15 -12 -8 -25 -11 -29 -7 -5 4 -5 2 -2 -4 8 -14 -66 -87 -78 -77 -4 5
-5 3 -2 -3 4 -6 -1 -19 -11 -27 -17 -15 -27 -7 -157 123 l-139 140 30 32 c45
48 105 131 159 223 27 44 52 83 58 86 5 3 8 9 8 13 -1 3 12 35 28 71 17 36 40
96 52 133 11 37 24 74 27 82 22 62 50 207 62 324 16 151 6 328 -26 486 -69
333 -228 621 -478 863 -94 91 -121 113 -241 193 -185 124 -396 208 -627 250
-80 14 -386 27 -438 18z m380 -175 c101 -16 102 -16 180 -39 387 -112 703
-361 906 -715 134 -235 202 -538 184 -820 -8 -125 -16 -169 -50 -306 -11 -45
-20 -84 -20 -86 0 -2 -5 -1 -12 3 -6 4 -8 3 -4 -4 13 -21 -129 -326 -147 -315
-6 3 -7 1 -4 -4 18 -29 -247 -315 -387 -420 -71 -52 -226 -133 -352 -184 -139
-55 -321 -88 -494 -91 -271 -3 -485 48 -730 176 -102 53 -221 137 -213 150 3
6 3 8 -2 4 -4 -4 -19 2 -34 13 -44 34 -166 155 -196 195 -16 21 -36 45 -45 54
-19 20 -110 155 -110 163 0 3 -12 28 -28 54 -60 104 -121 289 -146 438 -28
174 -28 307 -1 505 8 61 75 295 85 298 6 2 10 9 10 16 0 25 80 175 150 281
227 343 631 588 1055 641 116 14 293 11 405 -7z m1568 -3012 c45 -46 79 -87
75 -92 -4 -4 -3 -5 3 -2 5 3 185 -169 400 -384 l389 -389 -133 -132 -132 -133
-189 189 c-105 105 -187 194 -184 199 3 6 2 7 -3 4 -6 -3 -138 122 -294 279
l-285 284 130 130 c71 71 132 130 135 130 3 0 43 -37 88 -83z"/>
<path d="M1634 4222 c-17 -2 -42 -14 -55 -28 l-23 -24 1 -300 c0 -165 -2 -300
-6 -301 -3 -1 -139 -2 -301 -3 -309 -2 -332 -5 -346 -48 -2 -9 -5 -175 -5
-369 l-1 -353 27 -23 c26 -23 28 -23 328 -23 l302 0 1 -305 1 -305 23 -25 23
-25 362 0 362 0 22 24 c22 23 22 27 21 330 l0 306 309 0 310 0 20 26 c20 26
21 38 21 383 0 387 0 384 -55 399 -16 5 -159 8 -317 8 l-288 -1 0 305 0 304
-24 25 -25 24 -328 1 c-180 1 -342 0 -359 -2z m582 -442 c1 -349 0 -326 24
-350 19 -19 33 -20 325 -20 283 0 305 -1 306 -17 3 -57 4 -461 1 -473 -3 -13
-43 -15 -297 -14 -265 1 -297 0 -323 -16 -16 -10 -31 -29 -34 -42 -2 -12 -4
-152 -3 -310 l0 -288 -30 -1 c-43 -1 -382 -1 -431 0 l-41 1 2 288 c0 158 -3
300 -8 315 -17 51 -37 54 -342 55 -154 0 -287 1 -295 1 -13 1 -15 32 -14 239
1 130 2 243 3 250 1 9 69 12 304 12 328 1 331 1 345 56 4 16 7 157 7 315 l-1
285 250 0 251 -1 1 -285z"/>
</g>
</svg>
